/* XPM */
static char *coin[] = {
/* columns rows colors chars-per-pixel */
"64 64 234 2 ",
"   c #7B6954",
".  c #797269",
"X  c #797877",
"o  c #786E61",
"O  c #914E00",
"+  c #935103",
"@  c #9D5C03",
"#  c #95560B",
"$  c #975A13",
"%  c #8E5615",
"&  c #A25C02",
"*  c #9E610A",
"=  c #9D6018",
"-  c #A46202",
";  c #AB6502",
":  c #A96908",
">  c #B36A02",
",  c #BB6E02",
"<  c #BD7203",
"1  c #B97307",
"2  c #A96E1A",
"3  c #A76914",
"4  c #B47313",
"5  c #B97818",
"6  c #845F33",
"7  c #986527",
"8  c #AD7627",
"9  c #B67B26",
"0  c #A36F33",
"q  c #A57133",
"w  c #C37301",
"e  c #CA7602",
"r  c #CE7E02",
"t  c #CD7B09",
"y  c #C37906",
"u  c #D17D02",
"i  c #D17D0C",
"p  c #C57C12",
"a  c #D17F10",
"s  c #C17F21",
"d  c #947750",
"f  c #A77945",
"g  c #897B6C",
"h  c #BD8113",
"j  c #B9802B",
"k  c #CF8301",
"l  c #CD820D",
"z  c #CE8A0E",
"x  c #D18402",
"c  c #DA8502",
"v  c #D48A01",
"b  c #DC8C02",
"n  c #D2830B",
"m  c #D58A0E",
"M  c #DB880A",
"N  c #DD9201",
"B  c #D9980A",
"V  c #CE8412",
"C  c #C48419",
"Z  c #D38214",
"A  c #D6851A",
"S  c #D38A1C",
"D  c #DA891C",
"F  c #D68A17",
"G  c #D9991A",
"H  c #E38C03",
"J  c #E68B05",
"K  c #E49302",
"L  c #EB9403",
"P  c #E59B01",
"I  c #EC9B03",
"U  c #E3930B",
"Y  c #EA980C",
"T  c #F39502",
"R  c #F39D02",
"E  c #FD9B02",
"W  c #F3950A",
"Q  c #E69912",
"!  c #EC9E1A",
"~  c #E79815",
"^  c #F39919",
"/  c #E38E17",
"(  c #DEA20D",
")  c #DFA418",
"_  c #ECA202",
"`  c #E7A60B",
"'  c #F3A402",
"]  c #FBA502",
"[  c #F5A901",
"{  c #FCAB04",
"}  c #F5A50A",
"|  c #FCAD09",
" . c #F8A70A",
".. c #FEB304",
"X. c #FDB30B",
"o. c #FDBB0C",
"O. c #F6B60B",
"+. c #E6A515",
"@. c #F8A714",
"#. c #FEB312",
"$. c #FEBB14",
"%. c #FEB51A",
"&. c #FEBA1D",
"*. c #EEB418",
"=. c #C48423",
"-. c #CF8D2B",
";. c #C88827",
":. c #DC8C23",
">. c #DD8F29",
",. c #D38B25",
"<. c #D79124",
"1. c #DC922C",
"2. c #D99625",
"3. c #C58B35",
"4. c #CF9235",
"5. c #CB923B",
"6. c #DB9B35",
"7. c #DB9B38",
"8. c #D39638",
"9. c #E1932D",
"0. c #E49825",
"q. c #F29D25",
"w. c #E19533",
"e. c #E39A37",
"r. c #D8A239",
"t. c #DDA225",
"y. c #EAA729",
"u. c #F6A727",
"i. c #FFBA24",
"p. c #FEBD2C",
"a. c #F6B427",
"s. c #EAA334",
"d. c #E9A63A",
"f. c #E8A737",
"g. c #F3A434",
"h. c #F4AA3B",
"j. c #F6B335",
"k. c #FDBC3A",
"l. c #FCBD33",
"z. c #EBB33F",
"x. c #FEC10E",
"c. c #FEC318",
"v. c #FEC32C",
"b. c #FEC324",
"n. c #FFC334",
"m. c #FFC43C",
"M. c #FECA3B",
"N. c #FECA36",
"B. c #9F835D",
"V. c #B38856",
"C. c #A8947A",
"Z. c #B1926D",
"A. c #CC9846",
"S. c #CF9B4E",
"D. c #E49F45",
"F. c #D0A140",
"G. c #E8A844",
"H. c #F3B547",
"J. c #E6AA57",
"K. c #E9B959",
"L. c #F4B85B",
"P. c #F3AF44",
"I. c #C09D75",
"U. c #C09D6B",
"Y. c #D9B376",
"T. c #CEA767",
"R. c #EABE66",
"E. c #F6BB64",
"W. c #FEC543",
"Q. c #FFCA44",
"!. c #FFCC4C",
"~. c #FEC64B",
"^. c #FFCE54",
"/. c #FCCC5A",
"(. c #F8C355",
"). c #FED154",
"_. c #FFD25C",
"`. c #F6C666",
"'. c #FFD564",
"]. c #FFD768",
"[. c #FFD96B",
"{. c #FFD867",
"}. c #F8C878",
"|. c #FEDA74",
" X c #FEDC7C",
".X c #FAD379",
"XX c #888888",
"oX c #9B9B9B",
"OX c #969594",
"+X c #948F87",
"@X c #A69B8D",
"#X c #B5A796",
"$X c #ABABAB",
"%X c #A4A4A4",
"&X c #BCBCBC",
"*X c #B2B3B3",
"=X c #D7BC97",
"-X c #CCB190",
";X c #CEBBA5",
":X c #DEC29C",
">X c #FDDC83",
",X c #FAD789",
"<X c #FADD99",
"1X c #F3D799",
"2X c #F1CD88",
"3X c #FEE08A",
"4X c #FEE292",
"5X c #FEE49B",
"6X c #DBC6AA",
"7X c #D0C6BB",
"8X c #E2CEB6",
"9X c #E5D3BC",
"0X c #E0CAAA",
"qX c #FEE7A4",
"wX c #FEE8A9",
"eX c #FFEBB4",
"rX c #FEEDBA",
"tX c #C3C3C3",
"yX c #CBCBCB",
"uX c #C7C7C8",
"iX c #D3CDC7",
"pX c #D4D4D5",
"aX c #DDDDDD",
"sX c #E4D7C5",
"dX c #EBE2D8",
"fX c #F2E9DD",
"gX c #E3E3E3",
"hX c #EBEBEB",
"jX c #E9E9E8",
"kX c #F2ECE4",
"lX c #F6F2EE",
"zX c #F3F3F3",
"xX c #FFFFFF",
"cX c #FBF9F7",
/* pixels */
"xXxXxXxXxXxXxXxXxXxXxXxXxXxXxXxXxXxXxXxXxXxXxXxXxXxXxXxXxXxXxXxXxXxXxXxXxXxXxXxXxXxXxXxXxXxXxXxXxXxXxXxXxXxXxXxXxXxXxXxXxXxXxXxX",
"xXxXxXxXxXxXxXxXxXxXxXxXxXxXxXxXxXxXxXxXxXxXxXxXxXxXxXxXxXxXxXxXxXxXxXxXxXxXxXxXxXxXxXxXxXxXxXxXxXxXxXxXxXxXxXxXxXxXxXxXxXxXxXxX",
"xXxXxXxXxXxXxXxXxXxXxXxXxXxXxXxXxXxXxXxXxXxXxXxXxXxXxXxXxXxXxXxXxXxXxXxXxXxXxXxXxXxXxXxXxXxXxXxXxXxXxXxXxXxXxXxXxXxXxXxXxXxXxXxX",
"xXxXxXxXxXxXxXxXxXxXxXxXxXxXxXxXxXxXxXxXxXxXxXxXxXxXxXxXxXxXxXxXxXxXxXxXxXxXxXxXxXxXxXxXxXxXxXxXxXxXxXxXxXxXxXxXxXxXxXxXxXxXxXxX",
"xXxXxXxXxXxXxXxXxXxXxXxXxXxXxXxXxXxXxXxXxXxXxXxXxXxXxXxXxXxXxXxXxXxXxXxXxXxXxXxXxXxXxXxXxXxXxXxXxXxXxXxXxXxXxXxXxXxXxXxXxXxXxXxX",
"xXxXxXxXxXxXxXxXxXxXxXxXxXxXxXxXxXxXxXxXxXxXxXxXxXxXxXxXxXxXxXxXxXxXxXxXxXxXxXxXxXxXxXxXxXxXxXxXxXxXxXxXxXxXxXxXxXxXxXxXxXxXxXxX",
"xXxXxXxXxXxXxXxXxXxXxXxXxXxXxXxXxXxXxXxXxXxXxXxXxXxXxXxXxXcXzXdXsXsXdXkXcXxXxXxXxXxXxXxXxXxXxXxXxXxXxXxXxXxXxXxXxXxXxXxXxXxXxXxX",
"xXxXxXxXxXxXxXxXxXxXxXxXxXxXxXxXxXxXxXxXxXxXxXxXdX;XI.S.8.G ( ( ` *.` ( B r.T.=XjXxXxXxXxXxXxXxXxXxXxXxXxXxXxXxXxXxXxXxXxXxXxXxX",
"xXxXxXxXxXxXxXxXxXxXxXxXxXxXxXxXxXxXxXxXxXsXZ.q : B O.x.x.$.X.X.O.| X.O.o.x.x.$.( r.=XlXxXxXxXxXxXxXxXxXxXxXxXxXxXxXxXxXxXxXxXxX",
"xXxXxXxXxXxXxXxXxXxXxXxXxXxXxXxXxXxXcX-X0 $ h *.x.$.| R W ^ u.g.h.g.g.q.^ W R | o.c.x.G Y.zXxXxXxXxXxXxXxXxXxXxXxXxXxXxXxXxXxXxX",
"xXxXxXxXxXxXxXxXxXxXxXxXxXxXxXxXcX6X7 + 1 *.x.#.' ^ h.E.}.,X,X,X,X,X,X.X}.`.H.g.^ R O.O.x.G :XxXxXxXxXxXxXxXxXxXxXxXxXxXxXxXxXxX",
"xXxXxXxXxXxXxXxXxXxXxXxXxXxXxXkXV.+ & ) b.o.R q.L.2X,X5X3X X X|.|.[.].[.|.|.>X|.`.P.^ Y [ x.O.A.kXxXxXxXxXxXxXxXxXxXxXxXxXxXxXxX",
"xXxXxXxXxXxXxXxXxXxXxXxXxXxXsX$ + : O.c.@.q.L.,X4X3X|.{.[.[.{.{.'.'. XeXwX5X3X{._.|.`.h.^ T X.o.G sXxXxXxXxXxXxXxXxXxXxXxXxXxXxX",
"xXxXxXxXxXxXxXxXxXxXxXxXxX=X+ O 1 $.o.Y P.}.3X>X{.[.[.[.[.[.{.{.'._.3XrXrXrXeXeXwX|.^.'.(.q.W  .x.+.6XxXxXxXxXxXxXxXxXxXxXxXxXxX",
"xXxXxXxXxXxXxXxXxXxXxXxX-XO # C b.| ^ E.,X>X[.[.[.[.[.[.[.{.{.'.'._._.|. X3XqXeXeXeXqX|.Q._.g.! @.$.` 6XxXxXxXxXxXxXxXxXxXxXxXxX",
"xXxXxXxXxXxXxXxXxXxXxX6X+ O C $.@.g.E.,X[.].{.[.{.[.[.{.{.{.'.'._._._.).).!.Q.).|.wXwXwX4XM._.j.~ a.o.` 9XxXxXxXxXxXxXxXxXxXxXxX",
"xXxXxXxXxXxXxXxXxXxXsX# O > v.a.q.}. X'.'.].].].].{.].{.].'.'._._._.).).!.!.Q.M.M.M.[.qXqXqX'.!.H.q.R $.G fXxXxXxXxXxXxXxXxXxXxX",
"xXxXxXxXxXxXxXxXxXzX$ O @ O.#.g.E. X_.'.'.].].'.].].].'.'.'._._._.).).!.!.Q.Q.M.N.N.v.M.4XqXqX].M.u.J  .o.7.cXxXxXxXxXxXxXxXxXxX",
"xXxXxXxXxXxXxXxXxXV.O O B o.U H..X_.'.'.'.'.'.'.'.'.'.'.'._._.`.J.d.P.!.!.Q.M.M.v.v.v.b.b. XqX5X!.&.Y J | O.=XxXxXxXxXxXxXxXxXxX",
"xXxXxXxXxXxXxXxX8XO O 5 &.R e.`._._._._._._.'.'._.'.'._._._._./.J.e.z.Q.Q.Q.M.N.v.v.b.v.v.$.|.5X5Xv.%.J L o._ fXxXxXxXxXxXxXxXxX",
"xXxXxXxXxXxXxXxXq O 3 *.#./ L.^.).^./._._._._._._._._._._.^./.(.J.w.G.H.Q.m.N.n.v.v.v.v.c.o.o. X5X3X#.+.J ' o.T.xXxXxXxXxXxXxXxX",
"xXxXxXxXxXxXxX6X+ # p $.L d.^.!.^.^._.)._._._./._._./._./.L.D.w.D.7.e.e.e.f.l.v.v.v.v.b.o.x.o.$.4X5X'.O.J J X.` fXxXxXxXxXxXxXxX",
"xXxXxXxXxXxXxXf $ $ _ { / H.!.!.!.!.^.^.^.).^././.)./.(.G.>.9.w.w.w.w.9.9.>.>.a.v.v.c.$.o.......n.<X5Xa.I M } ..Y.xXxXxXxXxXxXxX",
"xXxXxXxXxXxXdX$ $ : X.I e.W.Q.Q.!.!.!.!.^.^.!.^.!.!.(.D.:.>.>.>.>.>.>.>.>.>.:.9.a.&.$.o............X<X.X[ c H X.~ cXxXxXxXxXxXxX",
"xXxXxXxXxXxX-X# $ n X.J d.M.W.Q.W.Q.Q.!.!.!.!.!.!.Q.J.D A :.:.S s ,.;.1.:.:.>.>.2.#.o.........{ [ a.<X<Xa.b c | } 9XxXxXxXxXxXxX",
"xXxXxXxXxXxX0 # + _  .D j.m.m.m.W.W.W.Q.Q.W.W.W.W.H.e.F D D A y.i.i.i.t.F.9.:.A Z _ ......{ ..[ [ [ }.<X`.P u I o.Y.xXxXxXxXxXxX",
"xXxXxXxXxXlX# O & ..I 0.l.n.n.n.m.m.m.m.W.m.W.m.n.H.1.A A D ! &.%.%.$.%.y.J.p V B ......{ { [ [ [ [ H.<X,X` r H o.f.cXxXxXxXxXxX",
"xXxXxXxXxX9XO O > X.H 0.p.p.l.v.n.n.n.n.n.n.l.n.v.H.:.A A D D %.X.X.X.X.&.+.X.......{ { { [ [ _ _ _ *.1X<X+.u c X.Y zXxXxXxXxXxX",
"xXxXxXxXxX-XO O r X.c q.i.i.p.p.p.p.l.l.p.p.p.i.i.f.,.a A A A D ! } | ..O.X.{ { { { { [ [ [ ' _ _ _ _ 2X1Xz.v u | _ dXxXxXxXxXxX",
"xXxXxXxXxXI.O O v ..M q.i.l.l.i.i.i.i.i.i.i.i.i.i.a.1.u i Z a Z A A A D Q _ { { { [ [ ' ' ' _ _ _ _ B `.1XK.v e ' { 0XxXxXxXxXxX",
"xXxXxXxXxXZ.O O U  .c +.i.~.~.%.i.%.i.%.i.%.i.%.%.%.5.i e t t i t Z a a a a M _ { ' ' [ _ _ _ P P P ( K.1XR.v e R | :XxXxXxXxXxX",
"xXxXxXxXcXV.O O K  .i Y %.W.W.%.#.%.%.%.%.%.#.%.#.#.+.3.e e e e t e t i t t i t P ' ' ' _ P _ P P P N K.1XR.v w I | =XxXxXxXxXxX",
"xXxXxXxXxXV.O O K  .u Y %.W.k.#.X.X.X.#.#.#.#.#.#.X.X.Q =.p w e w w w w e e e e e I ' I I P P P N N N K.1XR.k < I | =XxXxXxXxXxX",
"xXxXxXxXcXV.O O H | u K #.k.k.| | | | { | | | X.| | | { ] B C 4 p w w w w w w w w x I I P P K N N N v `.1XK.h < I { :XcXxXxXxXxX",
"xXxXxXxXcXZ.O O M { u H { k.k. .] { { { { { { { { { { { { { { ] N m C 5 w , , , w w P L I K N N N N v r.}.2.y < } } 6XcXxXxXxXxX",
"xXxXxXxXxX-XO O y | u c ] j.k.#.] ] ] ] ] ] ] ] ] { ] ] } ] ] ] ] ] ] ' ;.p , , , , I P K N N b v v v v v v < < } I sXxXxXxXxXxX",
"xXxXxXxXcX7XO O , | c e ] a.j.u.] ] ] ] ] ] ] ] } / <.C , H ] ] ] ] ] ] ~ 3., , , > P N N N v v v v v v k v > e { Q jXcXxXxXxXxX",
"xXxXxXxXxXgX+ O & ] K e I @.j.j.R R R R ' R R R 2.;.p 1 > , I ' R R R R 2.5 > > > , N b v v v v k k k v k k ; v | r.hXxXxXxXxXxX",
"xXxXxXxXxXhXq O + I R w b R j.j.R I I R I R R R ~ A.4 > > > > k b K b Z 5 > > > > y b v v v x k k k k k k h > K @.Y.zXxXxXxXxXxX",
"xXxXxXxXxXzXZ.O O r ] t e I I I I I I L I L I Y Y ;.5 > > > > > > > ; > > > > > ; k v x x k k k k k k k k 1 , } ^ 6XzXxXxXxXxXxX",
"xXxXxXxXxXzXiXO + > ] H , U I ! f.! L L I I ~ Q K K 9 4 ; ; ; ; - ; ; ; ; ; ; ; y v k k k k k k k k k k k ; F @.G dXcXxXxXxXxXxX",
"xXxXxXxXxXcXjX0 O # J R w p L ! f.f.U K K U U Q K K b 5 2 : - - - - - - - - * h v k k k k k k k k k k k 5 4 Y @.T.jXcXxXxXxXxXxX",
"xXxXxXxXxXcXhX-XO O , ] v > / K y.d.s.H U U U b b H b H k 4 3 * : - @ @ - > k k k x k k x x k x x x x V 2 t @.U 7XzXxXxXxXxXxXxX",
"xXxXxXxXxXxXzXaX7 O + Y R w 4 Q U f.f.s./ b b b c c c c v v x n 8 - > k x k k k x x k x k k x x x k n 9 5 I ' S.gXzXxXxXxXxXxXxX",
"xXxXxXxXxXxXcXjX#X+ O , ] H > ;.U / d.G.s.c c c c x c v v x k l 8 * > k k k k k k k k k k k k k k k =.2 Z ] M 7XhXcXxXxXxXxXxXxX",
"xXxXxXxXxXxXxXzXpXf O + c E r : -.B / f.f.6.v x x x x x x k k l 8 * > k k k k k k k k k k k k k k -.: < R R U.dXzXxXxXxXxXxXxXxX",
"xXxXxXxXxXxXxXzXjXtX$ O @ I W C 5 8.M F 6.f.6.F x x x x x k k r 1 < < k k k k k k k k k k k k F 8.2 > L ] ;.yXhXxXxXxXxXxXxXxXxX",
"xXxXxXxXxXxXxXxXzXaX#XO O > @.W 1 8 4.m m 6.7.7.2.F k r r r r r k k k k k k r r k k r r r r S 5.2 9 b E V ;XgXzXxXxXxXxXxXxXxXxX",
"xXxXxXxXxXxXxXxXcXhXpXC.O O s u.^ =.- 3.<.x <.7.7.7.6.,.F l k k r r r r r r r r r r r x r a S.8 5 0.E J #XpXhXxXxXxXxXxXxXxXxXxX",
"xXxXxXxXxXxXxXxXxXcXgXuXB.# # ;.u.Y , & 9 4.V n <.7.6.6.7.7.7.Z r k u r k r u r u r r t -.3.3 9 0. .J C.yXjXcXxXxXxXxXxXxXxXxXxX",
"xXxXxXxXxXxXxXxXxXxXzXaX&XC.O O , E T e ; 3 3.4.Z x S <.6.7.7.F u u u u u u u u u n -.5.2 & , L E b Z.yXaXzXxXxXxXxXxXxXxXxXxXxX",
"xXxXxXxXxXxXxXxXxXxXcXzXaX&XC.# O ; T E c > @ 2 3.5.,.V u u n u u r r u r u n ,.4.5.8 3 4 r E E l @XtXgXzXxXxXxXxXxXxXxXxXxXxXxX",
"xXxXxXxXxXxXxXxXxXxXxXcXzXaX&XoX7 O @ c E T u ; @ 3 9 5.A.8.-.-.,.,.-.-.4.A.5.j 2 @ 4 p Y E T 9 #XtXaXzXxXxXxXxXxXxXxXxXxXxXxXxX",
"xXxXxXxXxXxXxXxXxXxXxXxXcXhXaXuX$Xg % O , L E T c > - & & 3 8 9 9 j 9 8 2 * @ - > l ^  .T l B.$XuXaXhXcXxXxXxXxXxXxXxXxXxXxXxXxX",
"xXxXxXxXxXxXxXxXxXxXxXxXxXxXzXaXyX*XOXd % + 1 J E E L u y , ; & - & - ; > e u J E @.W i f oX*XyXgXzXxXxXxXxXxXxXxXxXxXxXxXxXxXxX",
"xXxXxXxXxXxXxXxXxXxXxXxXxXxXcXzXgXpX&X%X+Xg 6 % ; u T E E E E T T T L E E E E @./ 9 d +X%XtXaXjXzXxXxXxXxXxXxXxXxXxXxXxXxXxXxXxX",
"xXxXxXxXxXxXxXxXxXxXxXxXxXxXxXxXcXhXaXuX&X%XOXXX.   6 7 2 y x M J J H u u 5 q d +XOX%X&XyXgXzXzXxXxXxXxXxXxXxXxXxXxXxXxXxXxXxXxX",
"xXxXxXxXxXxXxXxXxXxXxXxXxXxXxXxXxXcXzXjXaXyX&X$XoXOXXXX X X . o o o g X g OXoX%X*X&XyXgXhXzXcXxXxXxXxXxXxXxXxXxXxXxXxXxXxXxXxXxX",
"xXxXxXxXxXxXxXxXxXxXxXxXxXxXxXxXxXxXxXcXzXjXaXpXuX&X*X%X%XoXoXoXOXoX%X%X*X*XtXuXpXaXhXzXcXxXxXxXxXxXxXxXxXxXxXxXxXxXxXxXxXxXxXxX",
"xXxXxXxXxXxXxXxXxXxXxXxXxXxXxXxXxXxXxXxXxXcXzXhXjXgXaXpXyXuXtXtXtXtXtXiXpXaXgXjXzXzXcXxXxXxXxXxXxXxXxXxXxXxXxXxXxXxXxXxXxXxXxXxX",
"xXxXxXxXxXxXxXxXxXxXxXxXxXxXxXxXxXxXxXxXxXxXxXxXcXzXzXhXjXjXgXgXgXgXjXjXhXzXzXxXxXxXxXxXxXxXxXxXxXxXxXxXxXxXxXxXxXxXxXxXxXxXxXxX",
"xXxXxXxXxXxXxXxXxXxXxXxXxXxXxXxXxXxXxXxXxXxXxXxXxXxXxXxXxXcXxXcXcXxXcXxXxXxXxXxXxXxXxXxXxXxXxXxXxXxXxXxXxXxXxXxXxXxXxXxXxXxXxXxX",
"xXxXxXxXxXxXxXxXxXxXxXxXxXxXxXxXxXxXxXxXxXxXxXxXxXxXxXxXxXxXxXxXxXxXxXxXxXxXxXxXxXxXxXxXxXxXxXxXxXxXxXxXxXxXxXxXxXxXxXxXxXxXxXxX",
"xXxXxXxXxXxXxXxXxXxXxXxXxXxXxXxXxXxXxXxXxXxXxXxXxXxXxXxXxXxXxXxXxXxXxXxXxXxXxXxXxXxXxXxXxXxXxXxXxXxXxXxXxXxXxXxXxXxXxXxXxXxXxXxX"
};
