/* XPM */
static char *luffybzs[] = {
/* columns rows colors chars-per-pixel */
"64 64 230 2 ",
"   c #000000",
".  c #02050B",
"X  c #0B0806",
"o  c #130D0A",
"O  c #16120E",
"+  c #181715",
"@  c #050D1B",
"#  c #281C14",
"$  c #37140E",
"%  c #392717",
"&  c #30271C",
"*  c #0A1530",
"=  c #36312C",
"-  c #1C2B3A",
";  c #5B1012",
":  c #591817",
">  c #501514",
",  c #661516",
"<  c #7A1618",
"1  c #482519",
"2  c #47341A",
"3  c #533C1E",
"4  c #662A1C",
"5  c #593B24",
"6  c #563A23",
"7  c #473C32",
"8  c #483429",
"9  c #752423",
"0  c #6C3C32",
"q  c #6D3429",
"w  c #6F1F22",
"e  c #56401F",
"r  c #5C4422",
"t  c #59472B",
"y  c #4A4339",
"u  c #58493B",
"i  c #654A25",
"p  c #664827",
"a  c #71472E",
"s  c #6E5128",
"d  c #6E5027",
"f  c #74552A",
"g  c #7C5B2C",
"h  c #715327",
"j  c #784B36",
"k  c #77563A",
"l  c #674B34",
"z  c #7A633B",
"x  c #0B1D46",
"c  c #0E2758",
"v  c #142F52",
"b  c #203B56",
"n  c #112D6A",
"m  c #153476",
"M  c #0F2962",
"N  c #2F4454",
"B  c #1D4B76",
"V  c #385669",
"C  c #385E7D",
"Z  c #2B506D",
"A  c #3E6078",
"S  c #474746",
"D  c #585753",
"F  c #695747",
"G  c #735845",
"H  c #704F4D",
"J  c #5B615B",
"K  c #7C634B",
"L  c #676258",
"P  c #7B6855",
"I  c #465A68",
"U  c #526771",
"Y  c #716F6E",
"T  c #94191C",
"R  c #9C1A1D",
"E  c #86181B",
"W  c #A41B1E",
"Q  c #AA1C1F",
"!  c #AC1C20",
"~  c #A41C20",
"^  c #BB1E23",
"/  c #B51E22",
"(  c #BE2025",
")  c #8E2C2E",
"_  c #C52025",
"`  c #CA2126",
"'  c #D12227",
"]  c #C01F24",
"[  c #815E2D",
"{  c #86563A",
"}  c #955D3D",
"|  c #84612E",
" . c #89642F",
".. c #8B6631",
"X. c #896937",
"o. c #946D33",
"O. c #9E7436",
"+. c #96733E",
"@. c #A3793A",
"#. c #8A5A42",
"$. c #925F45",
"%. c #876549",
"&. c #966447",
"*. c #846D59",
"=. c #876C54",
"-. c #976C51",
";. c #87745B",
":. c #987659",
">. c #957847",
",. c #A56743",
"<. c #A76B47",
"1. c #A87959",
"2. c #B47B56",
"3. c #A77150",
"4. c #867769",
"5. c #9A7E65",
"6. c #947962",
"7. c #887372",
"8. c #A9854A",
"9. c #BB845C",
"0. c #B89457",
"q. c #B68D4B",
"w. c #9D8168",
"e. c #8E8278",
"r. c #A2856A",
"t. c #AB886A",
"y. c #B58765",
"u. c #AA8C73",
"i. c #B69577",
"p. c #B49072",
"a. c #C59B56",
"s. c #CDA25A",
"d. c #D4A75C",
"f. c #C48C64",
"g. c #C08762",
"h. c #C9936C",
"j. c #C89B76",
"k. c #D19D75",
"l. c #D7AB61",
"z. c #DEB164",
"x. c #D6A67C",
"c. c #CCA27A",
"v. c #E3B566",
"b. c #E5B768",
"n. c #153A8A",
"m. c #17419A",
"M. c #235788",
"N. c #316692",
"B. c #1B4DB8",
"V. c #1947AA",
"C. c #2A6CA6",
"Z. c #2F75B0",
"A. c #48758C",
"S. c #697986",
"D. c #1F5CDE",
"F. c #1E58D5",
"G. c #1D53C8",
"H. c #205DDE",
"J. c #285FCB",
"K. c #2970D8",
"L. c #2E69E0",
"P. c #2A76E1",
"I. c #427BE2",
"U. c #5C93A7",
"Y. c #6BA9BA",
"T. c #5C90A0",
"R. c #3285CA",
"E. c #2F85DE",
"W. c #2E81D7",
"Q. c #378CDC",
"!. c #3691DD",
"~. c #3797E6",
"^. c #3A99E6",
"/. c #3087E3",
"(. c #72B2C3",
"). c #76B8CA",
"_. c #76B5D7",
"`. c #439CE6",
"'. c #4F8BE4",
"]. c #6D9CE8",
"[. c #58A7E5",
"{. c #4DA3E6",
"}. c #7AADED",
"|. c #69B2E4",
" X c #7ABAE0",
".X c #7DBDED",
"XX c #76B7E5",
"oX c #65ADE7",
"OX c #5D87C4",
"+X c #7DC3D6",
"@X c #8A8785",
"#X c #989796",
"$X c #918E8B",
"%X c #A7A6A6",
"&X c #B6B4B4",
"*X c #B5AEAE",
"=X c #A19182",
"-X c #C8A585",
";X c #DCAC82",
":X c #D5AB86",
">X c #D9B18D",
",X c #DEB692",
"<X c #E4B587",
"1X c #E2B28B",
"2X c #EBBE96",
"3X c #E6BD97",
"4X c #E0AF89",
"5X c #D4BEAA",
"6X c #EDC29B",
"7X c #F2C69E",
"8X c #F4C89F",
"9X c #F4C8A0",
"0X c #F5CEAA",
"qX c #88B5DB",
"wX c #82CADD",
"eX c #85C5ED",
"rX c #8CC6F1",
"tX c #96C6EF",
"yX c #AAD6F9",
"uX c #ACD8F7",
"iX c #B5DCF9",
"pX c #BFE2FB",
"aX c #C9C8C7",
"sX c #D6D6D6",
"dX c #CEECFF",
"fX c #C5E5FC",
"gX c #E6E6E6",
"hX c #FFFFFF",
"jX c #F3F3F3",
"kX c #EAE0D5",
/* pixels */
"D.D.D.D.D.D.D.D.D.n.m . .                                                                           * F.H.H.I.'.tXiXpXdXdXdXiXyX",
"D.D.D.D.D.D.D.D.D.D.B.x                       X %                                                     x J.I.}.uXyXyXyXyXyXyXyXyX",
"D.D.D.D.D.D.D.D.D.m..                         2 j X     X                                               V tXyXyXyXyXyXyXyXyXyXyX",
"D.D.D.D.D.D.D.D.G.@                         O y.@.O   o 6                                                 qXyXyXyXyXyXyXyXyXyXyX",
"D.D.D.D.D.D.D.D.n                         X u.x.9.$   O ,.o                                               N yXyXyXyXuXuXyXyXyXyX",
"D.D.D.D.D.D.D.G.@                         O 9X9X:Xa   + k.6               X                                 O qXyXuXuXuXyXyXyXyX",
"D.D.D.D.D.D.D.m                           ;.9X9X;Xa   o i.-.o             2.#                                 + I S.tXiXyXyXyXyX",
"D.D.D.D.D.D.F.*                           7X9X9X3X9.X   5.k.a             k.{ X                               @ n.n.I.}.qX}.}.}.",
"D.D.D.D.D.D.m.                          u 7X9X9X8Xh.1   r.1Xh.5           6Xh.1 .                       @ V.V.J.D.D.L.L.L.L.L.I.",
"D.D.D.D.D.F..                           6.7X9X9X8X7X1.  r.9X4Xh.1         2X;X9.%                       . D.D.H.D.D.D.D.D.D.D.D.",
"D.D.H.H.D.n                       X o   >X9X9X9X9X9X4X1 5.9X9X7X-X&       i.7X:Xy.O                     . m D.D.D.D.D.D.D.D.D.D.",
"D.D.H.H.n..                       # # & 2X9X9X9X9X9X7X1.= 9X9X9X9X,X&     P 9X9X9Xw.                      * D.D.D.D.D.D.D.D.D.D.",
"D.D.G.M .     .                   G % u 8X9X9X9X9X9X9X7XG -X9X9X9X9Xw.X   P 9X9X9X9XF                     . H.D.D.D.D.D.D.D.D.D.",
"D.D.n x .   . * .               o :X7 t.9X9X9X9X9X9X9X7X3X3X9X9X9X9X9X5.X & 9X9X9X9X7X+                 . . H.D.D.D.D.D.D.D.D.D.",
"D.D.D.D.B.B.B.B..               = 9Xw.j.9X9X9X9X9X9X9X9X9X9X9X9X9X9X9X9Xw.X :X9X9X9X9X6.                  . D.D.D.D.D.D.D.D.D.D.",
"D.D.D.D.D.D.D.V.                *.9Xi.-X9X9X9X9X9X9X9X9X9X9X9X9X9X9X9X9X9Xr.6.9X:X*.*.3X#   =             . D.D.D.D.D.D.D.D.D.D.",
"D.D.D.D.D.D.D.x                 ;.9X9X9X6.*.i.6X9X9X9X9X9X9X9X9X9X9X9X9X9X,Xr.*.u.9X9X7X:.  F .             n.D.D.D.D.D.D.D.D.D.",
"D.D.D.D.D.D.G.@                 9X9X9X9X9X6X-.G i.6X9X9X9X9X9X9X9X9X9X:XP p j 4.4.L -X7X-X  u.X             x D.D.D.D.D.D.D.D.D.",
"D.D.D.D.D.D.M   * .             9X9X9X9Xj.L 7.k j j p.9X9X9X9X9X9X9Xp.j ,.H $XhXhXgX&Xu.,XF 3XO             . V.D.D.D.D.D.D.D.D.",
"D.D.D.D.D.M . M K.@         7 o 9X9X3XF aXgXhXsX4.$.{ G ,X9X9X9X9X9X1.,.2 gXhXhXhXhXhXsXp.P 7XO               m D.D.D.D.D.D.D.D.",
"].].].L.D.n.J.L.P.@ .       u O 8X8XL sXhXhXhXhXjX4.,.,.k ,X9X9X9X9X1X1XY hXjXy + %XhXhXe.i.7XO               . B.H.D.D.D.D.D.D.",
"dXdXiXqXP.K.P.P.M.  X F   . l 7 8X-X*XhXhXN X Y hXaX%.,.{ p.9X9X9X9X9X9X@XhXsXX   Y hXhXe.9X7XO     X X   Q.!.R.B J.H.D.D.D.D.D.",
"dXdXdXiXeXQ./.W.n v G <X:.X u 6.9Xu.gXhXhX+   S hXhX*.,.,.G 8X8X9X9X9X9X#XhXhX&X#XjXhXhXe.6X9Xo   # c.j.o R.~.~.~./.P.P.P.P.D.D.",
"dXdXdXfXyX[.!.K.C.E.K :.c.:.y 6X9X=XhXhXhXsX*XgXhXhXe.,.,.k 8X7X9X9X9X9XkXhXhXhXhXhXhXhX5X9Xi.X   :.1.c.+ B ~.~.~.~.~.~./.P.P.P.",
"dXdXdXdXeX[.W.E.E.E.F 1 a x.8 3X9XkXhXhXhXhXhXhXhXhXkXO.,.H 7X7X9X9X9X9X-XsXhXhXhXhXhXaX-X9X5.. =.-.j 1.+ B ~.~.~.~.~.~.~.~./.~.",
"dXdXdXdXfX'.'.E.E.E.G 1 j $.=.1X9X0XaXhXhXhXhXhXhX%X2X2.,.k 7X7X9X9X9X9X9XP sXhXhXhX#X-X9X9X3XO p.#.j :.N @ ~.~.~.~.~.~.~.~.~.~.",
"dXdXdXdXdXfX}.Q.E.W.I X.#.q %.i.9X9X:Xe.gXhXjXhX%Xp.2Xh.,.G 9X9X9X9X9X9X9X6Xu.*.*.*.1Xu.-X9X9XG -.{ -.%.W.!.~.~.~.~.~.~.~.~.~.~.",
"dXdXdXdXdXfX`.!.'.Q.M.y.{ a { P 9X9X9X9X5.;.;.;.>X9X9Xh.,.H 9X9X9X9X9X9X9Xi.8 F 7 *.7 F 9X9X-Xt.3.q 1.J !.~.~.~.~.~.~.~.~.~.~.~.",
"dXdXdXdXdXdXtX}.tXiXrXK $.q #.K 9X9X9X9X9X9X9X9X9X9X9X4X<.j >X9X9X9X9X9X9X9X3X>X5.9X:X9X9X9X6.;X&.0 y.N.~.~.~.~.~.~.~.~.~.~.~.~.",
"dXdXdXdXdXdXdXdXdXdXdX$Xw.j { j.r.9X9X9X9X9X9X9X9X9X9X9X4X-.>X9X9X9X9X9X9X9X9X9X9X9X9X9X9X3X%.y.#.1.:.K.~.~.~.~.~.~.~.~.~.~.~.~.",
"dXdXdXdXdXdXdXdXdXdXdXpX;.f.a { F 6X7X9X9X9X9X7X9X9X9X9X9X9X9X9X9X9X9X9X9X9X9X9X7X8X9X9X2Xy.G j y.j.N.`.~.~.~.~.~.~.~.~.~.~.~.~.",
"dXdXdXdXdXdXdXdXdXdXiXuX(.4.4Xx.F -X9X9X9X6X-X9X9X9X9X9X9X9X9X9X9X9X9X9X9X9Xi.*.,X9X9X9X;XG j.;X:XU ~.^.~.~.~.~.~.~.~.~.~.~.~.~.",
".X.X.X.X.X.X.X.X.X.X.XXX!.K.7.1X:X5.9X9X3X>X= u -X,X,X3X,X3X,X3X,X,X6.P 4.*.6.9X8X8X8X6Xy.=.>Xr.U ~.~.~.~.~.~.~.~.~.~.~.~.~.~.~.",
"oX`.~.~.~.~.^.~.~.~.~.~.`.^.R.J p.F 2Xr.u F :X,X6.5.5.5.6.5.5.5.5.5.i.9X9X7X9X9X8X7X2Xh.F S I Z.~.~.~.~.~.~.~.~.~.~.~.~.~.~.~.~.",
"iX.X`.~.~.~.~.~.~.~.~.~.^.^.^.~.M.S 7 u 2X9X9X9X9X9X9X9X9X9X0X9X9X9X9X9X7X9X9X9X7X2Xh.%.C.~.~.~.~.~.~.~.~.~.~.~.~.~.~.~.~.~.~.~.",
"dXiXXX{.~.~.~.~.~.~.~.~.~.~.C.A.U C N.4.2X9X9X9X9X9X9X9X3X5.5.5.w.r.9X9X9X9X9X9X2Xk.&.N.~.~.~.~.~.~.~.~.~.~.~.~.~.~.~.~.~.~.~.~.",
"pXdXpXrX[.^.~.^.~.~.~.~.N.A.Y U Z.~.~.Z.y 9X9X9X9X9X9X9X6Xj.1.1.y.2X9X9X9X9X7X4Xk.&.- M.N.^.^.!.~.~.~.~.~.~.~.~.~.~.~.~.~.~.~.~.",
"yXpXfXdXiX[.^.^.~.~.!.C T.U R.^.`.^.N.= g %.-X6X9X9X9X9X9X9X7X7X9X9X9X9X7X4Xk.2.&.>.z.z.s.z V C./.~.^.^.~.~.~.~.~.^.~.~.~.~.~.~.",
"yXyXiXfXdXuXrXrXrX{.Z.T.R.!.^.!.N.I >.b.v.z.>.P ,X7X9X9X7X7X9X9X9X9X9X;Xk.2.&.5 r d.s.d.s.l.v.0.%.C R.!.~.~.~.~.~.~.~.~.~.~.~.~.",
"uXyXuXiXfXdXdXfXrX[.~.!.^.^.C.L a.b.v.l.a.a.+.0 j =.-X4X;X1X2X2X;X:Xh.2.$.5 5 ,.3 8.i i r t +.a.z.d.;.C.!.~.~.~.~.~.~.~.~.~.~.~.",
"uXiXuXuXiXdXiXrX[.~.~.~.!.N.P z.b.s.q.q.[  . .a ,.,.4 5 k 2.g.g.2.j a 5 { ,.,.,.3 O.g 3 d i r i z 0.0.0.J B ~.~.~.~.~.~.~.~.~.~.",
"dXfXdXdXiXuX.X`.~.~.~.Z.J s.v.v.a.@.i r | f  .a ,.,.,.,.#.a 5 5 0 { $.,.,.,.,.,.6 @.i i  .f r h o.O.g s q.a.J R.~.~.~.~.~.~.~.~.",
"eXeXeXeXeX.X~.~.~.~.~.t z.b.l.a.X.r [ 3 e f  .a ,.,.,.,.,.,.,.,.,.,.,.,.,.,.,.,.3 [ h i 2 2  .O.O.o.e e e 8.b.;.R.~.~.~.~.~.~.~.",
"~.~.~.~.~.~.~.~.~.C.J b.l.z g 8.@.o.d o.r [  .a ,.,.,.,.,.,.,.,.,.,.,.,.,.,.,.,.3 @.f 3 i g h O.O.e i g e h z b.;.R.~.~.~.~.~.~.",
"~.~.~.~.~.~.~.~.~.y z.0.r e r g O.O.O.f g g  .{ ,.,.,.,.,.,.,.,.,.,.,.,.,.,.,.,.5 @.i i g 2 o.O.o.r g % g d f 0.v.;.R.^.~.~.~.~.",
"`.~.~.~.~.~.~.~.Z 0.s.s i d i e O.O.O.O.@.O.| %.g.<.,.,.,.,.,.,.,.,.,.,.,.,.,.,.1 1 2 i 3 ..@.O.2 h d d e g f h 8.z.w.R.~.~.~.~.",
"[.{.{.`.`.`.^.C.0.v.q.i d d h O.O.O.O. .# + 3 -.f.f.,.,.,.,.,.,.,.,.,.,.,.,.,.2.9 _ < % | @.O.O.e r d i g o.+.e i 8.b.- R.~.~.~.",
"XX+X_.|.|.XXN.8.v.a.q.o.O.g O.O.O.O.o.$ / ( ~ :.x.f.f.2.,.,.,.,.,.,.,.,.,.,.2.f.l W ` ! 2 O.O.r h  .g ..O.O.O.i e f 8.d.A ~.~.~.",
" X X X X_._.U z.8.8.O.O.O.O.O.@.+...$ ( _ ` 1 <X<Xx.x.f.2.@.,.,.,.,.,.@.,.2.f.k.:.R ^ ` < 3 O.5 O.O.O.O.O.O. .i 2 e i z.+.C.~.~.",
" X X X X).T.X.a.% d g o.O.O. .o.X.$ ^ _ ( ~ u <X<X<X<Xx.h.f.9.<.,.,.,.<.f.g.x.<X:.T ! ^ ` T > [ g O.O.O.O.h e % h e e g v.J ~.~.",
"oX|._.|.+XU s.z r r i ..O.@.D y > ( _ ^ / , c.<X<X<X<X<X<Xx.h.f.g.9.f.k.x.x.<X<Xq ~ ~ ~ / T ) 7.#Xt g @.O.e r h i 2 r 2 d.q.Z.~.",
"^.{.{.[.[.z s.g e i ..g i 4 % *X) ( ( ^ W : <X<X<X<X<X<X<X<X<X<X<Xx.x.<X<X<X<Xc.w W ~ R > *X#X7.) Q , 2 % r O.o.h o.O. .s.v.J !.",
"~.~.^.^.R.g a...i 3 4 R ] ` < < &X0 T ~ W , <X<X<X<X<X<X<X<X<X<X<X<X<X<X<X<X<X=.< W , 7.=XH E , ` ` ' ` ^ : : 2  .@.O.@.a.l.+.C.",
"~.~.!.^.M.d.X.u U +Xw ` ^ ^ < T E $X%Xq R R =.<X<X<X<X<X<X<X<X<X<X<X<X<X<X<X<X0 E H *XY E W Q ; ^ ^ ^ ^ _ ` ' / < % e o.q.d.v.Z ",
"~.~.~.R.v S T.wX.X+X: ^ / / < , W R H %XY 9 =.<X<X<X<X<X<X<X<X<X<X<X<X<X<X<Xx.S $X*Xw ~ W W W ; W W W Q ! ! ^ ^ ] ` Q < i q.v.J ",
"~.!.B V Y.+X+X+X+XY.; W W W W ; W W Q E H #X$Xt.;X<X<X<X<X<X<X<X<X<X<X<X<Xt.=X$XH E ~ W Q Q ; R W W W W W W W Q / Q ^ ` _ , g i ",
"Z.v b +XwXwX+XY.+XC 1 W W W W ; W W W W W < H #X@X5.<X<X<X<X<X<X<X<X<Xt.4.aX*.E W W W W W W ; R W W W W W W W W W W Q ^ ] ` ^ W ",
"n m.n T.Y.Y.Y.+X(.Y.= W W W W ; W W W W W W R 1 4.%Xe.=.j.<X<X>X<X<Xr.aX%X8 R ~ W W W W W W , T W W W W W W W W W W W Q / / ^ ^ ",
"M.m v T.Y.+X).Y.(.(.V ~ W W W $ W W W W W W W 9 c.p.y @X%XP P K #.7.*X*.6.; ~ ~ W W W W W W ; R W W W W W W W W W W W W W W ! ^ ",
"A A T.Y.).Y.Y.Y.(.Y.V ~ W W W ; W W W W W W W T %.<X<Xx.P L $X$XsXY K <X#.R ~ ~ W W W W W W ; W W W W W W W W W W W W W W W W Q ",
").(.(.(.A.Z V Y.Y.Y.V < W W W , < W W W W W W W w c.<X<X>XY @X= :.j.<Xc.w W W W W W W W W R ; W W W W W W W W W W W T W W W W W ",
"Y.Y.Y.T.c m n Z (.Y.Y.> W W W W ; W W W W W W W T %.<X<X6.@XF L :.<X<X%.T W W W W W W W W E < W W W W W W W W W W W ; T W W W W ",
"v Y.(.T.M m m N (.(.(.N W W W W $ W W W W W W W Q < p.<XP 4.<X@Xu <X-X9 W W W W W W W W W < E W W W W W W W W W W W T ; W W W W ",
"c T.Y.Y.N v x T.(.(.U.+ W W W W ; W W W W W W W W Q 0 x.L G <XK S <X$.T W W W W W W W W W ; W W W W W W W W W W W W W $ W W W W "
};
